<?xml version="1.0" encoding="UTF-8"?>
<svg version="1.1" xmlns="http://www.w3.org/2000/svg" width="500" height="500">
<path d="M0 0 C67.32 0 134.64 0 204 0 C204 5.28 204 10.56 204 16 C209.28 16 214.56 16 220 16 C220 20.95 220 25.9 220 31 C224.95 31 229.9 31 235 31 C235 36.28 235 41.56 235 47 C240.28 47 245.56 47 251 47 C251 52.28 251 57.56 251 63 C256.28 63 261.56 63 267 63 C267 67.95 267 72.9 267 78 C271.95 78 276.9 78 282 78 C282 83.28 282 88.56 282 94 C287.28 94 292.56 94 298 94 C298 135.58 298 177.16 298 220 C292.72 220 287.44 220 282 220 C282 230.23 282 240.46 282 251 C277.05 251 272.1 251 267 251 C267 261.23 267 271.46 267 282 C261.72 282 256.44 282 251 282 C251 287.28 251 292.56 251 298 C245.72 298 240.44 298 235 298 C235 302.95 235 307.9 235 313 C230.05 313 225.1 313 220 313 C220 318.28 220 323.56 220 329 C214.72 329 209.44 329 204 329 C204 334.28 204 339.56 204 345 C199.05 345 194.1 345 189 345 C189 349.95 189 354.9 189 360 C183.72 360 178.44 360 173 360 C173 365.28 173 370.56 173 376 C126.14 376 79.28 376 31 376 C31 370.72 31 365.44 31 360 C26.05 360 21.1 360 16 360 C16 355.05 16 350.1 16 345 C10.72 345 5.44 345 0 345 C0 339.72 0 334.44 0 329 C-4.95 329 -9.9 329 -15 329 C-15 323.72 -15 318.44 -15 313 C-20.28 313 -25.56 313 -31 313 C-31 308.05 -31 303.1 -31 298 C-36.28 298 -41.56 298 -47 298 C-47 292.72 -47 287.44 -47 282 C-51.95 282 -56.9 282 -62 282 C-62 271.77 -62 261.54 -62 251 C-67.28 251 -72.56 251 -78 251 C-78 240.77 -78 230.54 -78 220 C-83.28 220 -88.56 220 -94 220 C-94 178.42 -94 136.84 -94 94 C-88.72 94 -83.44 94 -78 94 C-78 88.72 -78 83.44 -78 78 C-72.72 78 -67.44 78 -62 78 C-62 73.05 -62 68.1 -62 63 C-57.05 63 -52.1 63 -47 63 C-47 57.72 -47 52.44 -47 47 C-41.72 47 -36.44 47 -31 47 C-31 41.72 -31 36.44 -31 31 C-25.72 31 -20.44 31 -15 31 C-15 26.05 -15 21.1 -15 16 C-10.05 16 -5.1 16 0 16 C0 10.72 0 5.44 0 0 Z " fill="#63C54D" transform="translate(140,62)"/>
<path d="M0 0 C67.32 0 134.64 0 204 0 C204 5.28 204 10.56 204 16 C209.28 16 214.56 16 220 16 C220 20.95 220 25.9 220 31 C224.95 31 229.9 31 235 31 C235 36.28 235 41.56 235 47 C240.28 47 245.56 47 251 47 C251 52.28 251 57.56 251 63 C256.28 63 261.56 63 267 63 C267 67.95 267 72.9 267 78 C271.95 78 276.9 78 282 78 C282 83.28 282 88.56 282 94 C287.28 94 292.56 94 298 94 C298 135.58 298 177.16 298 220 C292.72 220 287.44 220 282 220 C282 230.23 282 240.46 282 251 C277.05 251 272.1 251 267 251 C267 261.23 267 271.46 267 282 C261.72 282 256.44 282 251 282 C251 287.28 251 292.56 251 298 C245.72 298 240.44 298 235 298 C235 302.95 235 307.9 235 313 C230.05 313 225.1 313 220 313 C220 318.28 220 323.56 220 329 C214.72 329 209.44 329 204 329 C204 334.28 204 339.56 204 345 C199.05 345 194.1 345 189 345 C189 349.95 189 354.9 189 360 C183.72 360 178.44 360 173 360 C173 365.28 173 370.56 173 376 C126.14 376 79.28 376 31 376 C31 370.72 31 365.44 31 360 C26.05 360 21.1 360 16 360 C16 355.05 16 350.1 16 345 C10.72 345 5.44 345 0 345 C0 339.72 0 334.44 0 329 C-4.95 329 -9.9 329 -15 329 C-15 323.72 -15 318.44 -15 313 C-20.28 313 -25.56 313 -31 313 C-31 308.05 -31 303.1 -31 298 C-36.28 298 -41.56 298 -47 298 C-47 292.72 -47 287.44 -47 282 C-51.95 282 -56.9 282 -62 282 C-62 271.77 -62 261.54 -62 251 C-67.28 251 -72.56 251 -78 251 C-78 240.77 -78 230.54 -78 220 C-83.28 220 -88.56 220 -94 220 C-94 178.42 -94 136.84 -94 94 C-88.72 94 -83.44 94 -78 94 C-78 88.72 -78 83.44 -78 78 C-72.72 78 -67.44 78 -62 78 C-62 73.05 -62 68.1 -62 63 C-57.05 63 -52.1 63 -47 63 C-47 57.72 -47 52.44 -47 47 C-41.72 47 -36.44 47 -31 47 C-31 41.72 -31 36.44 -31 31 C-25.72 31 -20.44 31 -15 31 C-15 26.05 -15 21.1 -15 16 C-10.05 16 -5.1 16 0 16 C0 10.72 0 5.44 0 0 Z M16 16 C16 21.28 16 26.56 16 32 C11.05 32 6.1 32 1 32 C1 37.28 1 42.56 1 48 C-4.28 48 -9.56 48 -15 48 C-15 52.95 -15 57.9 -15 63 C-20.28 63 -25.56 63 -31 63 C-31 67.95 -31 72.9 -31 78 C-35.95 78 -40.9 78 -46 78 C-46 83.28 -46 88.56 -46 94 C-51.28 94 -56.56 94 -62 94 C-62 99.28 -62 104.56 -62 110 C-67.28 110 -72.56 110 -78 110 C-78 141.02 -78 172.04 -78 204 C-72.72 204 -67.44 204 -62 204 C-62 214.23 -62 224.46 -62 235 C-56.72 235 -51.44 235 -46 235 C-46 245.23 -46 255.46 -46 266 C-41.05 266 -36.1 266 -31 266 C-31 271.28 -31 276.56 -31 282 C-25.72 282 -20.44 282 -15 282 C-15 286.95 -15 291.9 -15 297 C-9.72 297 -4.44 297 1 297 C1 302.28 1 307.56 1 313 C5.95 313 10.9 313 16 313 C16 318.28 16 323.56 16 329 C21.28 329 26.56 329 32 329 C32 333.95 32 338.9 32 344 C36.95 344 41.9 344 47 344 C47 349.28 47 354.56 47 360 C83.3 360 119.6 360 157 360 C157 354.72 157 349.44 157 344 C161.95 344 166.9 344 172 344 C172 339.05 172 334.1 172 329 C177.28 329 182.56 329 188 329 C188 323.72 188 318.44 188 313 C193.28 313 198.56 313 204 313 C204 307.72 204 302.44 204 297 C208.95 297 213.9 297 219 297 C219 292.05 219 287.1 219 282 C224.28 282 229.56 282 235 282 C235 276.72 235 271.44 235 266 C240.28 266 245.56 266 251 266 C251 255.77 251 245.54 251 235 C255.95 235 260.9 235 266 235 C266 224.77 266 214.54 266 204 C271.28 204 276.56 204 282 204 C282 172.98 282 141.96 282 110 C276.72 110 271.44 110 266 110 C266 104.72 266 99.44 266 94 C260.72 94 255.44 94 250 94 C250 89.05 250 84.1 250 79 C245.05 79 240.1 79 235 79 C235 73.72 235 68.44 235 63 C229.72 63 224.44 63 219 63 C219 58.05 219 53.1 219 48 C214.05 48 209.1 48 204 48 C204 42.72 204 37.44 204 32 C198.72 32 193.44 32 188 32 C188 26.72 188 21.44 188 16 C131.24 16 74.48 16 16 16 Z " fill="#1D1A29" transform="translate(140,62)"/>
<path d="M0 0 C26.07 0 52.14 0 79 0 C79 5.28 79 10.56 79 16 C83.95 16 88.9 16 94 16 C94 26.23 94 36.46 94 47 C99.28 47 104.56 47 110 47 C110 83.3 110 119.6 110 157 C99.44 157 88.88 157 78 157 C78 151.72 78 146.44 78 141 C67.77 141 57.54 141 47 141 C47 135.72 47 130.44 47 125 C41.72 125 36.44 125 31 125 C31 120.05 31 115.1 31 110 C20.77 110 10.54 110 0 110 C0 99.77 0 89.54 0 79 C-4.95 79 -9.9 79 -15 79 C-15 58.21 -15 37.42 -15 16 C-10.05 16 -5.1 16 0 16 C0 10.72 0 5.44 0 0 Z " fill="#181524" transform="translate(109,156)"/>
<path d="M0 0 C4.95 0 9.9 0 15 0 C15 5.28 15 10.56 15 16 C20.28 16 25.56 16 31 16 C31 20.95 31 25.9 31 31 C36.28 31 41.56 31 47 31 C47 36.28 47 41.56 47 47 C51.95 47 56.9 47 62 47 C62 51.95 62 56.9 62 62 C67.28 62 72.56 62 78 62 C78 51.77 78 41.54 78 31 C82.95 31 87.9 31 93 31 C93 36.28 93 41.56 93 47 C98.28 47 103.56 47 109 47 C109 51.95 109 56.9 109 62 C134.74 62 160.48 62 187 62 C187 57.05 187 52.1 187 47 C192.28 47 197.56 47 203 47 C203 41.72 203 36.44 203 31 C208.28 31 213.56 31 219 31 C219 41.23 219 51.46 219 62 C223.95 62 228.9 62 234 62 C234 57.05 234 52.1 234 47 C239.28 47 244.56 47 250 47 C250 41.72 250 36.44 250 31 C254.95 31 259.9 31 265 31 C265 25.72 265 20.44 265 15 C270.28 15 275.56 15 281 15 C281 10.05 281 5.1 281 0 C286.28 0 291.56 0 297 0 C297 10.23 297 20.46 297 31 C291.72 31 286.44 31 281 31 C281 36.28 281 41.56 281 47 C275.72 47 270.44 47 265 47 C265 51.95 265 56.9 265 62 C260.05 62 255.1 62 250 62 C250 67.28 250 72.56 250 78 C244.72 78 239.44 78 234 78 C234 83.28 234 88.56 234 94 C228.72 94 223.44 94 218 94 C218 98.95 218 103.9 218 109 C213.05 109 208.1 109 203 109 C203 114.28 203 119.56 203 125 C166.7 125 130.4 125 93 125 C93 119.72 93 114.44 93 109 C88.05 109 83.1 109 78 109 C78 104.05 78 99.1 78 94 C72.72 94 67.44 94 62 94 C62 88.72 62 83.44 62 78 C57.05 78 52.1 78 47 78 C47 72.72 47 67.44 47 62 C41.72 62 36.44 62 31 62 C31 57.05 31 52.1 31 47 C25.72 47 20.44 47 15 47 C15 41.72 15 36.44 15 31 C10.05 31 5.1 31 0 31 C0 20.77 0 10.54 0 0 Z " fill="#3E8747" transform="translate(94,297)"/>
<path d="M0 0 C25.74 0 51.48 0 78 0 C78 5.28 78 10.56 78 16 C83.28 16 88.56 16 94 16 C94 36.46 94 56.92 94 78 C88.72 78 83.44 78 78 78 C78 83.28 78 88.56 78 94 C72.72 94 67.44 94 62 94 C62 98.95 62 103.9 62 109 C57.05 109 52.1 109 47 109 C47 114.28 47 119.56 47 125 C41.72 125 36.44 125 31 125 C31 130.28 31 135.56 31 141 C20.77 141 10.54 141 0 141 C0 145.95 0 150.9 0 156 C-10.23 156 -20.46 156 -31 156 C-31 120.03 -31 84.06 -31 47 C-26.05 47 -21.1 47 -16 47 C-16 36.77 -16 26.54 -16 16 C-10.72 16 -5.44 16 0 16 C0 10.72 0 5.44 0 0 Z " fill="#181425" transform="translate(297,156)"/>
<path d="M0 0 C4.95 0 9.9 0 15 0 C15 5.28 15 10.56 15 16 C20.28 16 25.56 16 31 16 C31 20.95 31 25.9 31 31 C56.74 31 82.48 31 109 31 C109 26.05 109 21.1 109 16 C114.28 16 119.56 16 125 16 C125 10.72 125 5.44 125 0 C129.95 0 134.9 0 140 0 C140 10.23 140 20.46 140 31 C135.05 31 130.1 31 125 31 C125 36.28 125 41.56 125 47 C119.72 47 114.44 47 109 47 C109 52.28 109 57.56 109 63 C83.26 63 57.52 63 31 63 C31 57.72 31 52.44 31 47 C26.05 47 21.1 47 16 47 C16 41.72 16 36.44 16 31 C10.72 31 5.44 31 0 31 C0 20.77 0 10.54 0 0 Z " fill="#171623" transform="translate(172,328)"/>
<path d="M0 0 C25.74 0 51.48 0 78 0 C78 5.28 78 10.56 78 16 C83.28 16 88.56 16 94 16 C94 36.46 94 56.92 94 78 C89.05 78 84.1 78 79 78 C79 77.67 79 77.34 79 77 C83.29 77 87.58 77 92 77 C91.505 48.29 91.505 48.29 91 19 C86.71 19 82.42 19 78 19 C76 16 76 16 76 3 C39.37 2.505 39.37 2.505 2 2 C2 6.62 2 11.24 2 16 C-0.77042109 18.77042109 -2.76533805 18.39796106 -6.625 18.625 C-7.81351562 18.69976562 -9.00203125 18.77453125 -10.2265625 18.8515625 C-11.14179688 18.90054688 -12.05703125 18.94953125 -13 19 C-13.02892857 22.95831809 -13.04677427 26.91660917 -13.0625 30.875 C-13.07087891 32.00292969 -13.07925781 33.13085938 -13.08789062 34.29296875 C-13.09111328 35.36933594 -13.09433594 36.44570312 -13.09765625 37.5546875 C-13.10289307 38.54968262 -13.10812988 39.54467773 -13.11352539 40.56982422 C-13.1639415 43.00960773 -13.1639415 43.00960773 -12 45 C-13.32 46.32 -14.64 47.64 -16 49 C-20.62 49 -25.24 49 -30 49 C-30 83.98 -30 118.96 -30 155 C-20.76 154.67 -11.52 154.34 -2 154 C-2 149.38 -2 144.76 -2 140 C-1 139 -1 139 1.95922852 138.88647461 C3.25272217 138.89171143 4.54621582 138.89694824 5.87890625 138.90234375 C6.90889992 138.90446617 6.90889992 138.90446617 7.95970154 138.90663147 C10.16067801 138.91224521 12.36155409 138.92479993 14.5625 138.9375 C16.05143083 138.94251324 17.54036324 138.94707645 19.02929688 138.95117188 C22.68623075 138.96221907 26.34310558 138.97949287 30 139 C30 135.04 30 131.08 30 127 C30.33 127 30.66 127 31 127 C31 131.62 31 136.24 31 141 C20.77 141 10.54 141 0 141 C0 145.95 0 150.9 0 156 C-10.23 156 -20.46 156 -31 156 C-31 120.03 -31 84.06 -31 47 C-26.05 47 -21.1 47 -16 47 C-16 36.77 -16 26.54 -16 16 C-10.72 16 -5.44 16 0 16 C0 10.72 0 5.44 0 0 Z " fill="#122B17" transform="translate(297,156)"/>
<path d="M0 0 C5.28 0 10.56 0 16 0 C16 10.23 16 20.46 16 31 C10.72 31 5.44 31 0 31 C0 20.77 0 10.54 0 0 Z " fill="#F9F8F9" transform="translate(125,172)"/>
<path d="M0 0 C4.95 0 9.9 0 15 0 C15 10.23 15 20.46 15 31 C20.28 31 25.56 31 31 31 C31 67.3 31 103.6 31 141 C20.44 141 9.88 141 -1 141 C-1 135.72 -1 130.44 -1 125 C-11.23 125 -21.46 125 -32 125 C-32 119.72 -32 114.44 -32 109 C-31.67 109 -31.34 109 -31 109 C-31 113.95 -31 118.9 -31 124 C-27.55240234 123.98259766 -27.55240234 123.98259766 -24.03515625 123.96484375 C-21.81779112 123.95705291 -19.60042749 123.95097631 -17.38305664 123.94506836 C-15.83780234 123.9400286 -14.29255284 123.9331968 -12.74731445 123.92456055 C-10.53074971 123.91247924 -8.31424782 123.90676827 -6.09765625 123.90234375 C-5.4028566 123.89718246 -4.70805695 123.89202118 -3.99220276 123.88670349 C-2.3277067 123.88650723 -0.66334501 123.93810871 1 124 C1.33 124.33 1.66 124.66 2 125 C1.505 131.435 1.505 131.435 1 138 C10.24 138.33 19.48 138.66 29 139 C29 104.02 29 69.04 29 33 C24.38 33 19.76 33 15 33 C14.01 32.505 14.01 32.505 13 32 C12.97494385 31.12674072 12.9498877 30.25348145 12.92407227 29.35375977 C12.82912291 26.12397448 12.72987971 22.89435846 12.62768555 19.66479492 C12.58428566 18.26510801 12.54261436 16.86536641 12.50268555 15.46557617 C12.44510555 13.45738505 12.38086 11.44938851 12.31640625 9.44140625 C12.26141968 7.62684937 12.26141968 7.62684937 12.20532227 5.77563477 C12.31061734 3.09294544 12.31061734 3.09294544 11 2 C9.14712498 1.92773498 7.29166122 1.9161878 5.4375 1.9375 C4.42558594 1.94652344 3.41367188 1.95554688 2.37109375 1.96484375 C1.58863281 1.97644531 0.80617187 1.98804688 0 2 C0 1.34 0 0.68 0 0 Z " fill="#173618" transform="translate(188,172)"/>
<path d="M0 0 C4.95 0 9.9 0 15 0 C15 10.23 15 20.46 15 31 C10.05 31 5.1 31 0 31 C0 20.77 0 10.54 0 0 Z " fill="#FEFEFE" transform="translate(313,172)"/>
<path d="M0 0 C0.74664413 -0.00365067 1.49328827 -0.00730133 2.26255798 -0.01106262 C4.73191028 -0.0191721 7.20060717 -0.00555515 9.66992188 0.0090332 C11.38480631 0.00955176 13.09969135 0.00903422 14.8145752 0.00752258 C18.40918854 0.00761232 22.00357769 0.01804549 25.59814453 0.03613281 C30.20854351 0.05882008 34.81861483 0.0593643 39.42905426 0.05261517 C42.97034625 0.04927557 46.51156339 0.05590508 50.05284119 0.0657444 C51.75292062 0.06959686 53.45300837 0.07074442 55.15309143 0.06915855 C57.52800395 0.06878818 59.90249454 0.08139992 62.27734375 0.09765625 C62.98185165 0.09517883 63.68635956 0.09270142 64.41221619 0.09014893 C68.04849974 0.12992542 69.52281682 0.29507775 72.63867188 2.37231445 C72.30867188 6.99231445 71.97867188 11.61231445 71.63867188 16.37231445 C78.56867188 16.86731445 78.56867188 16.86731445 85.63867188 17.37231445 C85.63867188 17.70231445 85.63867188 18.03231445 85.63867188 18.37231445 C80.68867188 18.37231445 75.73867187 18.37231445 70.63867188 18.37231445 C70.63867188 13.09231445 70.63867188 7.81231445 70.63867188 2.37231445 C44.56867188 2.37231445 18.49867188 2.37231445 -8.36132812 2.37231445 C-8.36132812 7.65231445 -8.36132812 12.93231445 -8.36132812 18.37231445 C-13.31132813 18.37231445 -18.26132813 18.37231445 -23.36132812 18.37231445 C-23.36132812 39.16231445 -23.36132812 59.95231445 -23.36132812 81.37231445 C-18.41132812 81.37231445 -13.46132812 81.37231445 -8.36132812 81.37231445 C-8.36132812 90.94231445 -8.36132812 100.51231445 -8.36132812 110.37231445 C-8.69132812 110.37231445 -9.02132812 110.37231445 -9.36132812 110.37231445 C-9.36132812 101.13231445 -9.36132812 91.89231445 -9.36132812 82.37231445 C-12.94205729 82.6652832 -16.52278646 82.95825195 -20.10351562 83.2512207 C-23.36132812 83.37231445 -23.36132812 83.37231445 -25.36132812 82.37231445 C-25.38445472 73.91464111 -25.40224482 65.45698089 -25.4131403 56.99928379 C-25.41836843 53.07242787 -25.42546482 49.14559351 -25.43676758 45.21875 C-25.44759893 41.43217188 -25.45360548 37.64561455 -25.45620537 33.85902214 C-25.45805917 32.41127126 -25.46167893 30.96352157 -25.46705818 29.5157795 C-25.4742718 27.49474311 -25.47473621 25.47368598 -25.47485352 23.45263672 C-25.47707413 22.30013931 -25.47929474 21.14764191 -25.48158264 19.96022034 C-25.36132812 17.37231445 -25.36132812 17.37231445 -24.36132812 16.37231445 C-20.52520593 16.22755512 -17.03825026 16.19569937 -13.36132812 17.37231445 C-13.36132812 16.71231445 -13.36132812 16.05231445 -13.36132812 15.37231445 C-12.70132813 15.04231445 -12.04132813 14.71231445 -11.36132812 14.37231445 C-11.00365911 11.59245653 -10.91723379 8.83607238 -10.80273438 6.03637695 C-10.36132812 3.37231445 -10.36132812 3.37231445 -9.29382324 1.7290802 C-6.37688942 -0.31884006 -3.43558471 -0.03727525 0 0 Z " fill="#6AB55B" transform="translate(117.361328125,153.627685546875)"/>
<path d="M0 0 C2.50451207 3.97019621 1.18914793 10.26986746 1.05822754 14.67752075 C6.00822754 15.00752075 10.95822754 15.33752075 16.05822754 15.67752075 C16.77949898 20.00514941 17.16541567 23.31811432 17.07995605 27.59109497 C17.05985977 28.73182465 17.03976349 29.87255432 17.01905823 31.04785156 C16.99202316 32.26368927 16.9649881 33.47952698 16.93713379 34.73220825 C16.9017173 36.61723557 16.9017173 36.61723557 16.86558533 38.54034424 C16.80214042 41.86451644 16.73391146 45.18851936 16.66333008 48.51254272 C16.59235298 51.91120703 16.52771247 55.30999135 16.46252441 58.70877075 C16.3335755 65.36514621 16.19831422 72.02137088 16.05822754 78.67752075 C15.72822754 78.67752075 15.39822754 78.67752075 15.05822754 78.67752075 C15.05822754 58.54752075 15.05822754 38.41752075 15.05822754 17.67752075 C9.77822754 17.67752075 4.49822754 17.67752075 -0.94177246 17.67752075 C-0.94177246 12.39752075 -0.94177246 7.11752075 -0.94177246 1.67752075 C-26.68177246 1.67752075 -52.42177246 1.67752075 -78.94177246 1.67752075 C-78.94177246 6.95752075 -78.94177246 12.23752075 -78.94177246 17.67752075 C-81.37552246 17.71877075 -83.80927246 17.76002075 -86.31677246 17.80252075 C-87.08166992 17.82072876 -87.84656738 17.83893677 -88.63464355 17.85769653 C-90.40464521 17.87233245 -92.17449701 17.77680589 -93.94177246 17.67752075 C-94.60177246 17.01752075 -95.26177246 16.35752075 -95.94177246 15.67752075 C-91.32177246 15.34752075 -86.70177246 15.01752075 -81.94177246 14.67752075 C-82.00364746 12.75939575 -82.06552246 10.84127075 -82.12927246 8.86502075 C-82.31030637 3.25296972 -82.31030637 3.25296972 -80.88354492 1.02514648 C-77.96455146 -1.00068856 -75.01307564 -0.78648783 -71.58044434 -0.80245972 C-70.8338002 -0.81747025 -70.08715607 -0.83248077 -69.31788635 -0.84794617 C-66.84875338 -0.89344707 -64.37996521 -0.91725299 -61.91052246 -0.93966675 C-60.1956256 -0.96413023 -58.48074091 -0.98946139 -56.76586914 -1.015625 C-53.17139105 -1.0670253 -49.57699092 -1.10766471 -45.9822998 -1.14083862 C-41.37154443 -1.18428352 -36.76166621 -1.25467562 -32.15139008 -1.33315849 C-28.61023157 -1.39042455 -25.06901124 -1.4332673 -21.52760315 -1.47174454 C-19.82745929 -1.49199136 -18.12736337 -1.51678418 -16.42735291 -1.54616928 C-14.05248285 -1.58508489 -11.67822913 -1.60456192 -9.30310059 -1.61886597 C-8.59859268 -1.6342894 -7.89408478 -1.64971283 -7.16822815 -1.66560364 C-4.31445249 -1.66540396 -2.3964929 -1.63217482 0 0 Z " fill="#71B863" transform="translate(375.9417724609375,154.32247924804688)"/>
<path d="M0 0 C0.33 0 0.66 0 1 0 C1 5.28 1 10.56 1 16 C-4.28 16 -9.56 16 -15 16 C-15 20.95 -15 25.9 -15 31 C-19.95 31 -24.9 31 -30 31 C-30 36.28 -30 41.56 -30 47 C-35.28 47 -40.56 47 -46 47 C-46 52.28 -46 57.56 -46 63 C-51.28 63 -56.56 63 -62 63 C-62 94.02 -62 125.04 -62 157 C-56.72 157 -51.44 157 -46 157 C-46 166.9 -46 176.8 -46 187 C-46.33 187 -46.66 187 -47 187 C-47 177.43 -47 167.86 -47 158 C-51.89192904 158.36833897 -51.89192904 158.36833897 -56.78295898 158.74829102 C-58.51961658 158.87169543 -60.26008045 158.9376445 -62 159 C-64.11815639 156.88184361 -63.21805322 152.14516609 -63.25292969 149.21337891 C-63.26764816 148.29146255 -63.28236664 147.3695462 -63.29753113 146.41969299 C-63.34461831 143.35536862 -63.38387831 140.29101236 -63.421875 137.2265625 C-63.45005239 135.10525512 -63.4782303 132.98394775 -63.50640869 130.86264038 C-63.56398765 126.40879114 -63.61689669 121.95491036 -63.66748047 117.50097656 C-63.73343068 111.78505462 -63.81802484 106.06957015 -63.9070549 100.35396767 C-63.97206999 95.97040708 -64.02359542 91.58676293 -64.07138824 87.20298386 C-64.09669316 85.09533457 -64.12707591 82.98774007 -64.16255951 80.88023758 C-64.21083198 77.93525605 -64.240113 74.99067168 -64.26464844 72.04541016 C-64.29249672 70.73146523 -64.29249672 70.73146523 -64.32090759 69.39097595 C-64.34199438 63.44648043 -64.34199438 63.44648043 -62.67544937 61.27077293 C-58.92121858 58.42331304 -52.37371242 59.87008775 -48 60 C-48 55.71 -48 51.42 -48 47 C-43.70639731 44.85319865 -42.35222258 44.87475841 -37.75 45.375 C-36.67234375 45.48585937 -35.5946875 45.59671875 -34.484375 45.7109375 C-33.66453125 45.80632812 -32.8446875 45.90171875 -32 46 C-32.14308594 44.51886719 -32.14308594 44.51886719 -32.2890625 43.0078125 C-32.39992188 41.72648437 -32.51078125 40.44515625 -32.625 39.125 C-32.74101563 37.84882813 -32.85703125 36.57265625 -32.9765625 35.2578125 C-32.98429687 34.18273437 -32.99203125 33.10765625 -33 32 C-31 30 -31 30 -27.7421875 29.8046875 C-26.46601562 29.82789063 -25.18984375 29.85109375 -23.875 29.875 C-21.95300781 29.90207031 -21.95300781 29.90207031 -19.9921875 29.9296875 C-18.51105469 29.96449219 -18.51105469 29.96449219 -17 30 C-17.02320313 29.01257813 -17.04640625 28.02515625 -17.0703125 27.0078125 C-17.08835938 25.72648437 -17.10640625 24.44515625 -17.125 23.125 C-17.14820313 21.84882813 -17.17140625 20.57265625 -17.1953125 19.2578125 C-17 16 -17 16 -15 14 C-12.41935871 13.85502015 -9.95056116 13.81322455 -7.375 13.875 C-6.66859375 13.88402344 -5.9621875 13.89304687 -5.234375 13.90234375 C-3.48943902 13.92592397 -1.74467705 13.96179539 0 14 C0 9.38 0 4.76 0 0 Z " fill="#0B2110" transform="translate(124,109)"/>
<path d="M0 0 C0.99 0 1.98 0 3 0 C2.67 9.57 2.34 19.14 2 29 C6.62 29 11.24 29 16 29 C17.65 30.32 19.3 31.64 21 33 C20.34 33.66 19.68 34.32 19 35 C18.68693198 36.95503503 18.68693198 36.95503503 18.7215271 39.22671509 C18.71036362 40.11295059 18.69920013 40.9991861 18.68769836 41.91227722 C18.68553818 42.88691422 18.68337799 43.86155121 18.68115234 44.86572266 C18.67110672 45.89013962 18.6610611 46.91455658 18.65071106 47.97001648 C18.61973302 51.36802592 18.60280334 54.76595607 18.5859375 58.1640625 C18.56723761 60.51533701 18.54766511 62.86660473 18.5272522 65.21786499 C18.47580042 71.41564947 18.43624462 77.61345574 18.39910889 83.81134033 C18.35915085 90.1320948 18.30802121 96.45275761 18.2578125 102.7734375 C18.16089881 115.1822274 18.07654362 127.5910689 18 140 C17.34 140 16.68 140 16 140 C16 104.03 16 68.06 16 31 C10.72 31 5.44 31 0 31 C0 20.77 0 10.54 0 0 Z " fill="#6EBD60" transform="translate(203,172)"/>
<path d="M0 0 C4.95 0 9.9 0 15 0 C15 0.33 15 0.66 15 1 C10.38 1 5.76 1 1 1 C1 35.98 1 70.96 1 107 C10.24 106.67 19.48 106.34 29 106 C29 101.38 29 96.76 29 92 C30 91 30 91 32.95922852 90.88647461 C34.25272217 90.89171143 35.54621582 90.89694824 36.87890625 90.90234375 C37.90889992 90.90446617 37.90889992 90.90446617 38.95970154 90.90663147 C41.16067801 90.91224521 43.36155409 90.92479993 45.5625 90.9375 C47.05143083 90.94251324 48.54036324 90.94707645 50.02929688 90.95117188 C53.68623075 90.96221907 57.34310558 90.97949287 61 91 C61 87.04 61 83.08 61 79 C61.33 79 61.66 79 62 79 C62 83.62 62 88.24 62 93 C51.77 93 41.54 93 31 93 C31 97.95 31 102.9 31 108 C20.77 108 10.54 108 0 108 C0 72.36 0 36.72 0 0 Z " fill="#0B2211" transform="translate(266,204)"/>
<path d="M0 0 C5.28 0 10.56 0 16 0 C16 5.28 16 10.56 16 16 C10.72 16 5.44 16 0 16 C0 10.72 0 5.44 0 0 Z " fill="#3F8A46" transform="translate(78,281)"/>
<path d="M0 0 C4.95 0 9.9 0 15 0 C15 5.28 15 10.56 15 16 C10.05 16 5.1 16 0 16 C0 10.72 0 5.44 0 0 Z " fill="#3E8A45" transform="translate(391,281)"/>
<path d="M0 0 C2.62697064 -0.22137393 5.00893964 -0.28162025 7.625 -0.1875 C8.33140625 -0.17396484 9.0378125 -0.16042969 9.765625 -0.14648438 C11.51074128 -0.1111104 13.25546608 -0.05730221 15 0 C15.495 0.99 15.495 0.99 16 2 C10.72 2 5.44 2 0 2 C0 7.28 0 12.56 0 18 C-5.28 18 -10.56 18 -16 18 C-16 22.95 -16 27.9 -16 33 C-41.74 33 -67.48 33 -94 33 C-94 28.05 -94 23.1 -94 18 C-93.67 18 -93.34 18 -93 18 C-93 22.62 -93 27.24 -93 32 C-67.92 32 -42.84 32 -17 32 C-17 26.72 -17 21.44 -17 16 C-12.05 16 -7.1 16 -2 16 C-2.04125 13.916875 -2.0825 11.83375 -2.125 9.6875 C-2.25 3.375 -2.25 3.375 0 0 Z " fill="#6FB360" transform="translate(297,326)"/>
<path d="M0 0 C5.28 0 10.56 0 16 0 C16 0.66 16 1.32 16 2 C11.38 2 6.76 2 2 2 C2.226875 4.083125 2.45375 6.16625 2.6875 8.3125 C3.35654952 14.45559105 3.35654952 14.45559105 1.91015625 16.6640625 C-0.90412273 18.63233123 -3.22888411 18.43731188 -6.63671875 18.51171875 C-7.93544922 18.54716797 -9.23417969 18.58261719 -10.57226562 18.61914062 C-11.94400517 18.6422405 -13.3157501 18.6650229 -14.6875 18.6875 C-16.07099607 18.72067542 -17.45446129 18.75516531 -18.83789062 18.79101562 C-22.22517883 18.87363241 -25.61220357 18.94274058 -29 19 C-28.98839844 19.91523438 -28.97679687 20.83046875 -28.96484375 21.7734375 C-28.95582031 22.96195312 -28.94679688 24.15046875 -28.9375 25.375 C-28.92589844 26.55835938 -28.91429687 27.74171875 -28.90234375 28.9609375 C-29 32 -29 32 -30 34 C-40.23 33.67 -50.46 33.34 -61 33 C-61 32.67 -61 32.34 -61 32 C-51.1 32 -41.2 32 -31 32 C-31 26.72 -31 21.44 -31 16 C-20.77 16 -10.54 16 0 16 C0 10.72 0 5.44 0 0 Z " fill="#71BA62" transform="translate(328,281)"/>
<path d="M0 0 C9.9 0 19.8 0 30 0 C30 4.95 30 9.9 30 15 C35.28 15 40.56 15 46 15 C46 20.28 46 25.56 46 31 C56.23 31 66.46 31 77 31 C77 35.95 77 40.9 77 46 C76.67 46 76.34 46 76 46 C75.505 40.06 75.505 40.06 75 34 C73.69796631 33.970271 73.69796631 33.970271 72.36962891 33.93994141 C69.15273733 33.86190128 65.93622955 33.77521119 62.71972656 33.68261719 C61.32691428 33.64430673 59.93400235 33.60945741 58.54101562 33.578125 C56.54013692 33.53252093 54.53957854 33.47348377 52.5390625 33.4140625 C51.33459473 33.3826416 50.13012695 33.3512207 48.88916016 33.31884766 C46 33 46 33 44 31 C43.8046875 27.7421875 43.8046875 27.7421875 43.875 23.875 C43.89304688 22.59367187 43.91109375 21.31234375 43.9296875 19.9921875 C43.95289063 19.00476563 43.97609375 18.01734375 44 17 C43.01257813 17.03480469 42.02515625 17.06960938 41.0078125 17.10546875 C39.72648437 17.13253906 38.44515625 17.15960938 37.125 17.1875 C35.21074219 17.23970703 35.21074219 17.23970703 33.2578125 17.29296875 C32.18273437 17.19628906 31.10765625 17.09960938 30 17 C28 14 28 14 29 1 C19.43 1 9.86 1 0 1 C0 0.67 0 0.34 0 0 Z " fill="#6FB761" transform="translate(110,266)"/>
<path d="M0 0 C0.99 0.33 1.98 0.66 3 1 C2.98839844 1.69867188 2.97679687 2.39734375 2.96484375 3.1171875 C2.95582031 4.02726563 2.94679688 4.93734375 2.9375 5.875 C2.92589844 6.77992188 2.91429687 7.68484375 2.90234375 8.6171875 C2.83750743 11.0168585 2.83750743 11.0168585 4 13 C10.93 13.495 10.93 13.495 18 14 C17.67 45.35 17.34 76.7 17 109 C16.67 109 16.34 109 16 109 C16 78.31 16 47.62 16 16 C10.72 16 5.44 16 0 16 C0 10.72 0 5.44 0 0 Z " fill="#0B1E0E" transform="translate(406,156)"/>
<path d="M0 0 C4.62 0 9.24 0 14 0 C14 0.33 14 0.66 14 1 C10.37 1.33 6.74 1.66 3 2 C2.67 4.64 2.34 7.28 2 10 C2.66 10 3.32 10 4 10 C4 11.32 4 12.64 4 14 C3.34 14 2.68 14 2 14 C2 14.66 2 15.32 2 16 C-0.81655728 16.93885243 -2.51060392 17.12366869 -5.42289734 17.12025452 C-6.32733582 17.12162918 -7.23177429 17.12300385 -8.16362 17.12442017 C-9.15336319 17.12082489 -10.14310638 17.11722961 -11.1628418 17.11352539 C-12.20691193 17.11367142 -13.25098206 17.11381744 -14.32669067 17.1139679 C-17.78422103 17.11327018 -21.24169778 17.10548431 -24.69921875 17.09765625 C-27.0938972 17.09579157 -29.48857604 17.0943679 -31.883255 17.09336853 C-38.19122365 17.08954728 -44.49916934 17.07972031 -50.80712891 17.06866455 C-57.24185882 17.05844202 -63.67659244 17.0538691 -70.11132812 17.04882812 C-82.74089522 17.03809772 -95.37044639 17.02121774 -108 17 C-108.33 16.34 -108.66 15.68 -109 15 C-73.03 15 -37.06 15 0 15 C0 10.05 0 5.1 0 0 Z " fill="#0B1B14" transform="translate(297,407)"/>
<path d="M0 0 C4.95 0 9.9 0 15 0 C15 5.28 15 10.56 15 16 C14.67 16 14.34 16 14 16 C13.67 11.71 13.34 7.42 13 3 C9.37 2.67 5.74 2.34 2 2 C2 11.24 2 20.48 2 30 C4.26875 29.79375 6.5375 29.5875 8.875 29.375 C12.7421875 29.0234375 12.7421875 29.0234375 16 29 C18 31 18 31 18.1953125 34.4765625 C18.18201493 35.85950968 18.15816232 37.24238654 18.125 38.625 C18.11597656 39.33140625 18.10695312 40.0378125 18.09765625 40.765625 C18.07407603 42.51056098 18.03820461 44.25532295 18 46 C21.96 46 25.92 46 30 46 C30 46.33 30 46.66 30 47 C25.38 47 20.76 47 16 47 C16 41.72 16 36.44 16 31 C10.72 31 5.44 31 0 31 C0 20.77 0 10.54 0 0 Z " fill="#0A1F12" transform="translate(172,328)"/>
<path d="M0 0 C4.62 0 9.24 0 14 0 C14 4.95 14 9.9 14 15 C19.28 15 24.56 15 30 15 C30 20.28 30 25.56 30 31 C56.07 31 82.14 31 109 31 C107 33 107 33 103.76034546 33.20254517 C102.34710189 33.19055091 100.93392938 33.16720356 99.52099609 33.13525391 C98.75017197 33.12579239 97.97934784 33.11633087 97.18516541 33.10658264 C94.63101824 33.07283788 92.07734986 33.02474157 89.5234375 32.9765625 C87.75510926 32.95040226 85.9867676 32.9251347 84.21841431 32.90072632 C79.5591945 32.83400777 74.900256 32.75512976 70.24127197 32.67376709 C65.48908301 32.59291279 60.73672878 32.52349179 55.984375 32.453125 C46.65604286 32.31330914 37.32801467 32.15959882 28 32 C28 26.72 28 21.44 28 16 C23.05 16 18.1 16 13 16 C12.8046875 12.64713542 12.609375 9.29427083 12.4140625 5.94140625 C12.27742187 4.97074219 12.14078125 4.00007813 12 3 C9.56612247 1.78306124 7.58161154 1.68040104 4.875 1.4375 C3.96492187 1.35371094 3.05484375 1.26992188 2.1171875 1.18359375 C1.41851562 1.12300781 0.71984375 1.06242187 0 1 C0 0.67 0 0.34 0 0 Z " fill="#4A7F56" transform="translate(173,360)"/>
<path d="M0 0 C4.95 0 9.9 0 15 0 C15 5.28 15 10.56 15 16 C19.95 16 24.9 16 30 16 C30 20.95 30 25.9 30 31 C35.28 31 40.56 31 46 31 C46 35.95 46 40.9 46 46 C45.67 46 45.34 46 45 46 C44.505 40.06 44.505 40.06 44 34 C43.01257813 34.03480469 42.02515625 34.06960937 41.0078125 34.10546875 C39.72648437 34.13253906 38.44515625 34.15960938 37.125 34.1875 C35.21074219 34.23970703 35.21074219 34.23970703 33.2578125 34.29296875 C32.18273437 34.19628906 31.10765625 34.09960938 30 34 C27.64880601 30.47320901 27.78556548 28.97120515 27.875 24.8125 C27.89304687 23.72582031 27.91109375 22.63914063 27.9296875 21.51953125 C27.95289063 20.68808594 27.97609375 19.85664063 28 19 C27.08476562 18.96261719 26.16953125 18.92523438 25.2265625 18.88671875 C24.03804688 18.82097656 22.84953125 18.75523437 21.625 18.6875 C19.84996094 18.60048828 19.84996094 18.60048828 18.0390625 18.51171875 C17.03617187 18.34285156 16.03328125 18.17398438 15 18 C11.7169902 13.0754853 12.88469195 7.82305673 13 2 C8.71 1.67 4.42 1.34 0 1 C0 0.67 0 0.34 0 0 Z " fill="#6EB761" transform="translate(360,125)"/>
<path d="M0 0 C4.95 0 9.9 0 15 0 C15 20.46 15 40.92 15 62 C10.05 62 5.1 62 0 62 C0 61.67 0 61.34 0 61 C4.29 61 8.58 61 13 61 C12.67 41.2 12.34 21.4 12 1 C8.04 1 4.08 1 0 1 C0 0.67 0 0.34 0 0 Z " fill="#173717" transform="translate(376,172)"/>
<path d="M0 0 C0.495 0.99 0.495 0.99 1 2 C-37.115 2.495 -37.115 2.495 -76 3 C-76.33 8.28 -76.66 13.56 -77 19 C-79.43375 19.04125 -81.8675 19.0825 -84.375 19.125 C-85.13989746 19.14320801 -85.90479492 19.16141602 -86.69287109 19.18017578 C-88.46287275 19.1948117 -90.23272455 19.09928514 -92 19 C-92.66 18.34 -93.32 17.68 -94 17 C-89.38 16.67 -84.76 16.34 -80 16 C-80.061875 14.081875 -80.12375 12.16375 -80.1875 10.1875 C-80.36845218 4.57798248 -80.36845218 4.57798248 -78.94474792 2.34465027 C-76.00883404 0.31468158 -73.03765098 0.56065288 -69.59106445 0.56762695 C-68.46386993 0.55233948 -68.46386993 0.55233948 -67.31390381 0.53674316 C-64.83028773 0.50655112 -62.34705693 0.497338 -59.86328125 0.48828125 C-58.14119682 0.47143912 -56.41912471 0.45328951 -54.69706726 0.43388367 C-50.16466118 0.38632674 -45.63230506 0.35655432 -41.09973145 0.33044434 C-36.47459033 0.30066745 -31.84962152 0.2541273 -27.22460938 0.20898438 C-18.14982961 0.12288657 -9.07501444 0.05557017 0 0 Z " fill="#68C455" transform="translate(374,153)"/>
<path d="M0 0 C4.62 0 9.24 0 14 0 C14 0.33 14 0.66 14 1 C7.565 1.495 7.565 1.495 1 2 C1.185625 4.10375 1.37125 6.2075 1.5625 8.375 C2.125 14.75 2.125 14.75 1 17 C-1.54941373 17.31241371 -4.00361513 17.51303421 -6.5625 17.625 C-7.27341797 17.66367188 -7.98433594 17.70234375 -8.71679688 17.7421875 C-10.47742425 17.83671783 -12.23867728 17.91945817 -14 18 C-13.94199219 18.90363281 -13.88398437 19.80726562 -13.82421875 20.73828125 C-13.77910156 21.91777344 -13.73398438 23.09726563 -13.6875 24.3125 C-13.62949219 25.48425781 -13.57148437 26.65601563 -13.51171875 27.86328125 C-14 31 -14 31 -16.1875 32.9375 C-19.2919989 34.1103107 -21.05485429 34.16528804 -24.3125 33.6875 C-25.859375 33.460625 -27.40625 33.23375 -29 33 C-29.33 37.29 -29.66 41.58 -30 46 C-30.33 46 -30.66 46 -31 46 C-31 41.05 -31 36.1 -31 31 C-26.05 31 -21.1 31 -16 31 C-16 26.05 -16 21.1 -16 16 C-10.72 16 -5.44 16 0 16 C0 10.72 0 5.44 0 0 Z " fill="#71BA63" transform="translate(141,94)"/>
<path d="M0 0 C4.95 0 9.9 0 15 0 C15 10.23 15 20.46 15 31 C10.05 31 5.1 31 0 31 C4.04677732 28.97661134 5.65906157 28.90563177 10 29 C12.1498608 28.2136045 12.1498608 28.2136045 12.61889648 26.26269531 C13.04524278 23.73138369 13.11258231 21.36415786 13.09765625 18.796875 C13.09443359 17.8171875 13.09121094 16.8375 13.08789062 15.828125 C13.07951172 14.81234375 13.07113281 13.7965625 13.0625 12.75 C13.05798828 11.71875 13.05347656 10.6875 13.04882812 9.625 C13.03706103 7.08330846 13.0191261 4.54164682 13 2 C9.37 2 5.74 2 2 2 C2 6.62 2 11.24 2 16 C1.34 16 0.68 16 0 16 C0 10.72 0 5.44 0 0 Z " fill="#0A2211" transform="translate(297,328)"/>
<path d="M0 0 C2.70108504 0.090916 5.36930311 0.23740766 8.0625 0.4375 C9.20041992 0.51581055 9.20041992 0.51581055 10.36132812 0.59570312 C12.24121722 0.72575835 14.12065685 0.86228038 16 1 C16 1.33 16 1.66 16 2 C11.05 2 6.1 2 1 2 C1 7.28 1 12.56 1 18 C-4.28 18 -9.56 18 -15 18 C-15.33 22.29 -15.66 26.58 -16 31 C-16.33 31 -16.66 31 -17 31 C-17 26.05 -17 21.1 -17 16 C-14.11462914 14.55731457 -11.46891449 14.97742035 -8.2890625 15.0625 C-6.03803159 15.00103841 -4.15458145 14.62964937 -2 14 C-1.93941406 13.07316406 -1.87882813 12.14632812 -1.81640625 11.19140625 C-1.73261719 9.99386719 -1.64882812 8.79632813 -1.5625 7.5625 C-1.48128906 6.36753906 -1.40007812 5.17257813 -1.31640625 3.94140625 C-1 1 -1 1 0 0 Z " fill="#1D381F" transform="translate(140,92)"/>
<path d="M0 0 C25.41 0 50.82 0 77 0 C77 4.62 77 9.24 77 14 C76.67 14 76.34 14 76 14 C75.505 8.06 75.505 8.06 75 2 C65.62964062 1.97687496 56.25929099 1.95908409 46.88890934 1.94818783 C42.53831541 1.94295935 38.18774093 1.93586235 33.8371582 1.92456055 C29.64209742 1.91373041 25.44705541 1.9077229 21.25198174 1.90512276 C19.64793032 1.90326874 18.04387997 1.89964856 16.4398365 1.89426994 C14.20083485 1.88705781 11.9619117 1.88600913 9.72290039 1.88647461 C8.44604874 1.884254 7.16919708 1.88203339 5.85365295 1.87974548 C3.10111145 1.67331911 3.10111145 1.67331911 2 3 C1.92755947 5.01964199 1.91622812 7.04167124 1.9375 9.0625 C1.94652344 10.16722656 1.95554687 11.27195313 1.96484375 12.41015625 C1.97644531 13.26480469 1.98804687 14.11945313 2 15 C1.34 15 0.68 15 0 15 C0 10.05 0 5.1 0 0 Z " fill="#0C1A14" transform="translate(110,157)"/>
<path d="M0 0 C0.33 0 0.66 0 1 0 C1 4.29 1 8.58 1 13 C5.95 13 10.9 13 16 13 C17.44207941 15.88415883 17.09394887 18.41721528 17.0625 21.625 C17.05347656 22.81351563 17.04445313 24.00203125 17.03515625 25.2265625 C17.02355469 26.14179688 17.01195312 27.05703125 17 28 C20.96 28 24.92 28 29 28 C29.33 28.66 29.66 29.32 30 30 C25.05 30 20.1 30 15 30 C15 25.05 15 20.1 15 15 C10.05 15 5.1 15 0 15 C0 10.05 0 5.1 0 0 Z " fill="#091E10" transform="translate(360,110)"/>
<path d="M0 0 C0.99 0.495 0.99 0.495 2 1 C2 10.24 2 19.48 2 29 C5.3 29 8.6 29 12 29 C12.66 25.04 13.32 21.08 14 17 C14.33 17 14.66 17 15 17 C15 21.62 15 26.24 15 31 C10.05 31 5.1 31 0 31 C0 20.77 0 10.54 0 0 Z " fill="#69BF5A" transform="translate(313,328)"/>
<path d="M0 0 C0.33 0 0.66 0 1 0 C1 5.61 1 11.22 1 17 C-4.28 17 -9.56 17 -15 17 C-15 21.95 -15 26.9 -15 32 C-19.95 32 -24.9 32 -30 32 C-30 31.67 -30 31.34 -30 31 C-25.38 31 -20.76 31 -16 31 C-16.20625 28.73125 -16.4125 26.4625 -16.625 24.125 C-16.9765625 20.2578125 -16.9765625 20.2578125 -17 17 C-15 15 -15 15 -11.7421875 14.8046875 C-10.46601563 14.82789063 -9.18984375 14.85109375 -7.875 14.875 C-5.95300781 14.90207031 -5.95300781 14.90207031 -3.9921875 14.9296875 C-2.51105469 14.96449219 -2.51105469 14.96449219 -1 15 C-1.01160156 14.00097656 -1.02320313 13.00195312 -1.03515625 11.97265625 C-1.04417969 10.68230469 -1.05320312 9.39195312 -1.0625 8.0625 C-1.07410156 6.77472656 -1.08570313 5.48695313 -1.09765625 4.16015625 C-1 1 -1 1 0 0 Z " fill="#0A1F0D" transform="translate(374,233)"/>
<path d="M0 0 C0.66 0 1.32 0 2 0 C2 10.23 2 20.46 2 31 C-3.61 31 -9.22 31 -15 31 C-14.01 30.01 -13.02 29.02 -12 28 C-8.04 28.33 -4.08 28.66 0 29 C0 19.43 0 9.86 0 0 Z " fill="#6FBC5F" transform="translate(279,172)"/>
<path d="M0 0 C4.62 0 9.24 0 14 0 C14 5.28 14 10.56 14 16 C19.28 16 24.56 16 30 16 C30 20.95 30 25.9 30 31 C29.34 31 28.68 31 28 31 C28 26.38 28 21.76 28 17 C23.05 17 18.1 17 13 17 C12.67 12.05 12.34 7.1 12 2 C8.04 1.67 4.08 1.34 0 1 C0 0.67 0 0.34 0 0 Z " fill="#0B1E18" transform="translate(142,375)"/>
<path d="M0 0 C0.99 0 1.98 0 3 0 C2.67 9.57 2.34 19.14 2 29 C6.29 29.33 10.58 29.66 15 30 C15 30.33 15 30.66 15 31 C10.05 31 5.1 31 0 31 C0 20.77 0 10.54 0 0 Z " fill="#6CB162" transform="translate(203,172)"/>
<path d="M0 0 C0.66 0 1.32 0 2 0 C2 10.23 2 20.46 2 31 C-2.29 31 -6.58 31 -11 31 C-11 30.67 -11 30.34 -11 30 C-8.03 29.67 -5.06 29.34 -2 29 C-1.19070518 25.39129392 -0.82185917 21.95538062 -0.68359375 18.26171875 C-0.64169922 17.19501953 -0.59980469 16.12832031 -0.55664062 15.02929688 C-0.51732422 13.92650391 -0.47800781 12.82371094 -0.4375 11.6875 C-0.39431641 10.56537109 -0.35113281 9.44324219 -0.30664062 8.28710938 C-0.20085213 5.52485431 -0.09876328 2.7625137 0 0 Z " fill="#69B65A" transform="translate(170,328)"/>
<path d="M0 0 C0.99 0.33 1.98 0.66 3 1 C2.98839844 1.69867188 2.97679687 2.39734375 2.96484375 3.1171875 C2.95582031 4.02726563 2.94679688 4.93734375 2.9375 5.875 C2.92589844 6.77992188 2.91429687 7.68484375 2.90234375 8.6171875 C2.83750743 11.0168585 2.83750743 11.0168585 4 13 C6.8159849 13.46898963 6.8159849 13.46898963 10.0625 13.625 C11.71958984 13.73714844 11.71958984 13.73714844 13.41015625 13.8515625 C14.26480469 13.90054688 15.11945313 13.94953125 16 14 C16 14.66 16 15.32 16 16 C10.72 16 5.44 16 0 16 C0 10.72 0 5.44 0 0 Z " fill="#122C16" transform="translate(406,156)"/>
<path d="M0 0 C0.66 0 1.32 0 2 0 C2 5.28 2 10.56 2 16 C-2.95 16 -7.9 16 -13 16 C-12.67 14.68 -12.34 13.36 -12 12 C-10.39125 12.2784375 -10.39125 12.2784375 -8.75 12.5625 C-4.92789678 13.23224429 -4.92789678 13.23224429 -1 12 C-0.67 8.04 -0.34 4.08 0 0 Z " fill="#0C1F18" transform="translate(295,359)"/>
<path d="M0 0 C5.28 0 10.56 0 16 0 C16 0.66 16 1.32 16 2 C11.38 2 6.76 2 2 2 C2.33 6.29 2.66 10.58 3 15 C2.01 15.66 1.02 16.32 0 17 C0 11.39 0 5.78 0 0 Z " fill="#67AC59" transform="translate(328,281)"/>
<path d="M0 0 C0.66 0 1.32 0 2 0 C2 5.28 2 10.56 2 16 C-0.43375 16.04125 -2.8675 16.0825 -5.375 16.125 C-6.13989746 16.14320801 -6.90479492 16.16141602 -7.69287109 16.18017578 C-9.46287275 16.1948117 -11.23272455 16.09928514 -13 16 C-13.66 15.34 -14.32 14.68 -15 14 C-10.38 13.67 -5.76 13.34 -1 13 C-1.020625 11.040625 -1.04125 9.08125 -1.0625 7.0625 C-1.08377188 5.04167124 -1.07244053 3.01964199 -1 1 C-0.67 0.67 -0.34 0.34 0 0 Z " fill="#6BB05E" transform="translate(295,156)"/>
<path d="M0 0 C5.28 0 10.56 0 16 0 C16 0.66 16 1.32 16 2 C11.38 2 6.76 2 2 2 C2.33 5.96 2.66 9.92 3 14 C2.01 14.66 1.02 15.32 0 16 C0 10.72 0 5.44 0 0 Z " fill="#0C1F18" transform="translate(375,328)"/>
<path d="M0 0 C5.28 0 10.56 0 16 0 C15.67 0.66 15.34 1.32 15 2 C10.71 2 6.42 2 2 2 C2 6.62 2 11.24 2 16 C1.34 16 0.68 16 0 16 C0 10.72 0 5.44 0 0 Z " fill="#0B2018" transform="translate(328,375)"/>
<path d="M0 0 C0.66 0 1.32 0 2 0 C2 4.95 2 9.9 2 15 C-2.95 15 -7.9 15 -13 15 C-13 14.34 -13 13.68 -13 13 C-9.04 13 -5.08 13 -1 13 C-0.67 8.71 -0.34 4.42 0 0 Z " fill="#478153" transform="translate(373,328)"/>
<path d="M0 0 C4.95 0 9.9 0 15 0 C15 9.9 15 19.8 15 30 C14.67 30 14.34 30 14 30 C13.98018066 29.22285645 13.96036133 28.44571289 13.93994141 27.64501953 C13.84492991 24.13799309 13.73515441 20.63158206 13.625 17.125 C13.5940625 15.90167969 13.563125 14.67835938 13.53125 13.41796875 C13.49257812 12.25136719 13.45390625 11.08476562 13.4140625 9.8828125 C13.36693115 8.26463623 13.36693115 8.26463623 13.31884766 6.61376953 C13.25323678 3.84238346 13.25323678 3.84238346 11 2 C8.33050591 1.75684344 8.33050591 1.75684344 5.375 1.875 C4.37210938 1.89304688 3.36921875 1.91109375 2.3359375 1.9296875 C1.17964844 1.96449219 1.17964844 1.96449219 0 2 C0 1.34 0 0.68 0 0 Z " fill="#052307" transform="translate(188,172)"/>
<path d="M0 0 C0.66 0 1.32 0 2 0 C2.33 0.99 2.66 1.98 3 3 C2.67 3.33 2.34 3.66 2 4 C1.91262355 5.85369611 1.89301847 7.71067541 1.90234375 9.56640625 C1.90556641 10.69111328 1.90878906 11.81582031 1.91210938 12.97460938 C1.92048828 14.15861328 1.92886719 15.34261719 1.9375 16.5625 C1.94201172 17.75037109 1.94652344 18.93824219 1.95117188 20.16210938 C1.96300314 23.10809412 1.98093924 26.05405316 2 29 C6.29 29 10.58 29 15 29 C15 29.33 15 29.66 15 30 C10.05 30 5.1 30 0 30 C0 20.1 0 10.2 0 0 Z " fill="#4A7F54" transform="translate(94,298)"/>
<path d="M0 0 C0.33 0 0.66 0 1 0 C1.33 4.62 1.66 9.24 2 14 C6.62 14 11.24 14 16 14 C16 14.66 16 15.32 16 16 C10.72 16 5.44 16 0 16 C0 10.72 0 5.44 0 0 Z " fill="#143217" transform="translate(328,78)"/>
<path d="M0 0 C0.33 0 0.66 0 1 0 C1 4.95 1 9.9 1 15 C-3.95 15 -8.9 15 -14 15 C-11 12 -11 12 -8.51953125 11.70703125 C-7.62621094 11.74183594 -6.73289062 11.77664063 -5.8125 11.8125 C-3.4303125 11.9053125 -3.4303125 11.9053125 -1 12 C-0.67 8.04 -0.34 4.08 0 0 Z " fill="#497F54" transform="translate(342,360)"/>
<path d="M0 0 C0.33 0 0.66 0 1 0 C1 4.95 1 9.9 1 15 C-3.95 15 -8.9 15 -14 15 C-13.67 14.34 -13.34 13.68 -13 13 C-9.01434954 12.39386091 -5.02725031 12.25435265 -1 12 C-0.67 8.04 -0.34 4.08 0 0 Z " fill="#477B51" transform="translate(405,282)"/>
<path d="M0 0 C0.33 0 0.66 0 1 0 C1.66 4.62 2.32 9.24 3 14 C6.3 13.67 9.6 13.34 13 13 C13.33 13.66 13.66 14.32 14 15 C9.38 15 4.76 15 0 15 C0 10.05 0 5.1 0 0 Z " fill="#67B75B" transform="translate(78,266)"/>
<path d="M0 0 C4.95 0 9.9 0 15 0 C15 0.33 15 0.66 15 1 C9.06 1.495 9.06 1.495 3 2 C2.87625 3.794375 2.7525 5.58875 2.625 7.4375 C2.4140625 10.49609375 2.4140625 10.49609375 2 13 C1.01 13.495 1.01 13.495 0 14 C0 9.38 0 4.76 0 0 Z " fill="#0B1C17" transform="translate(344,360)"/>
<path d="M0 0 C0.33 0 0.66 0 1 0 C1 3.96 1 7.92 1 12 C-3.95 12 -8.9 12 -14 12 C-13.67 11.34 -13.34 10.68 -13 10 C-10.27734375 9.5859375 -10.27734375 9.5859375 -6.9375 9.375 C-5.83277344 9.30023438 -4.72804688 9.22546875 -3.58984375 9.1484375 C-2.73519531 9.09945313 -1.88054687 9.05046875 -1 9 C-0.67 6.03 -0.34 3.06 0 0 Z " fill="#67C159" transform="translate(358,316)"/>
<path d="M0 0 C0.33 0 0.66 0 1 0 C1 4.95 1 9.9 1 15 C-3.95 15 -8.9 15 -14 15 C-14 14.67 -14 14.34 -14 14 C-10.04 13.34 -6.08 12.68 -2 12 C-1.34 8.04 -0.68 4.08 0 0 Z " fill="#498054" transform="translate(358,344)"/>
<path d="M0 0 C0.99 0.33 1.98 0.66 3 1 C2.67 5.62 2.34 10.24 2 15 C2.99 15.33 3.98 15.66 5 16 C3.35 16 1.7 16 0 16 C0 10.72 0 5.44 0 0 Z " fill="#0B2118" transform="translate(203,374)"/>
<path d="M0 0 C0.66 0 1.32 0 2 0 C4.13079691 4.26159382 3.04502317 10.40763702 3 15 C-1.62 15 -6.24 15 -11 15 C-11 14.67 -11 14.34 -11 14 C-10.21753906 13.93941406 -9.43507813 13.87882812 -8.62890625 13.81640625 C-7.61699219 13.73261719 -6.60507812 13.64882813 -5.5625 13.5625 C-4.55316406 13.48128906 -3.54382813 13.40007812 -2.50390625 13.31640625 C-0.06359221 13.26788532 -0.06359221 13.26788532 1 12 C1.09858603 10.5444063 1.12972143 9.08392081 1.125 7.625 C1.12757813 6.83351563 1.13015625 6.04203125 1.1328125 5.2265625 C1.08617666 2.82656504 1.08617666 2.82656504 0 0 Z " fill="#68C25A" transform="translate(372,297)"/>
<path d="M0 0 C4.62 0 9.24 0 14 0 C14 0.33 14 0.66 14 1 C10.37 1.66 6.74 2.32 3 3 C2.34 5.64 1.68 8.28 1 11 C0.67 11 0.34 11 0 11 C0 7.37 0 3.74 0 0 Z " fill="#3A8F3A" transform="translate(328,344)"/>
<path d="M0 0 C0.33 0 0.66 0 1 0 C1.33 3.96 1.66 7.92 2 12 C6.29 12.66 10.58 13.32 15 14 C15 14.33 15 14.66 15 15 C10.05 15 5.1 15 0 15 C0 10.05 0 5.1 0 0 Z " fill="#45744F" transform="translate(78,282)"/>
<path d="M0 0 C0.33 0.66 0.66 1.32 1 2 C1.66 2.33 2.32 2.66 3 3 C2.67 3.66 2.34 4.32 2 5 C1.6947378 9.65275976 1.6947378 9.65275976 3 14 C5.12576782 14.46651207 5.12576782 14.46651207 7.5625 14.625 C8.38878906 14.69976562 9.21507812 14.77453125 10.06640625 14.8515625 C10.70449219 14.90054687 11.34257812 14.94953125 12 15 C12 15.33 12 15.66 12 16 C8.04 16 4.08 16 0 16 C0 10.72 0 5.44 0 0 Z " fill="#67C15B" transform="translate(125,312)"/>
<path d="M0 0 C0.33 0 0.66 0 1 0 C1.22786458 2.05078125 1.45572917 4.1015625 1.68359375 6.15234375 C1.81886614 8.01140229 1.81886614 8.01140229 3 9 C5.18292774 9.23481693 7.37203174 9.41363323 9.5625 9.5625 C10.76003906 9.64628906 11.95757812 9.73007812 13.19140625 9.81640625 C14.11824219 9.87699219 15.04507813 9.93757813 16 10 C16 10.33 16 10.66 16 11 C14.06263299 11.16820551 12.12510094 11.33451095 10.1875 11.5 C9.10855469 11.5928125 8.02960938 11.685625 6.91796875 11.78125 C4 12 4 12 1 12 C1 11.01 1 10.02 1 9 C0.01 8.67 -0.98 8.34 -2 8 C-1.67 7.67 -1.34 7.34 -1 7 C-0.63239269 4.67182036 -0.29758419 2.3381615 0 0 Z " fill="#11161E" transform="translate(76,288)"/>
<path d="M0 0 C0.99 0 1.98 0 3 0 C2.67 4.95 2.34 9.9 2 15 C1.34 15 0.68 15 0 15 C0 10.05 0 5.1 0 0 Z " fill="#6BB15C" transform="translate(78,157)"/>
<path d="M0 0 C0 0.66 0 1.32 0 2 C-4.95 2 -9.9 2 -15 2 C-15 1.34 -15 0.68 -15 0 C-4.44191344 -1.33257403 -4.44191344 -1.33257403 0 0 Z " fill="#63BF59" transform="translate(109,295)"/>
<path d="M0 0 C0.33 0 0.66 0 1 0 C1.06058594 0.78246094 1.12117187 1.56492187 1.18359375 2.37109375 C1.26738281 3.38300781 1.35117188 4.39492188 1.4375 5.4375 C1.51871094 6.44683594 1.59992188 7.45617187 1.68359375 8.49609375 C1.73211468 10.93640779 1.73211468 10.93640779 3 12 C4.84891946 12.23363881 6.70488031 12.41303635 8.5625 12.5625 C9.57441406 12.64628906 10.58632812 12.73007812 11.62890625 12.81640625 C12.41136719 12.87699219 13.19382813 12.93757813 14 13 C14 13.33 14 13.66 14 14 C9.38 14 4.76 14 0 14 C0 9.38 0 4.76 0 0 Z " fill="#507C5B" transform="translate(172,392)"/>
<path d="M0 0 C2.64 0 5.28 0 8 0 C7.38125 0.2475 6.7625 0.495 6.125 0.75 C3.48607822 2.30230693 2.98872888 3.10986942 2 6 C1.55557214 8.66656713 1.26934472 11.30655282 1 14 C0.67 14 0.34 14 0 14 C0 9.38 0 4.76 0 0 Z " fill="#398C3C" transform="translate(360,313)"/>
<path d="M0 0 C0.33 0 0.66 0 1 0 C1.04254356 1.99954746 1.04080783 4.00041636 1 6 C0 7 0 7 -2.94140625 7.09765625 C-4.73384766 7.08025391 -4.73384766 7.08025391 -6.5625 7.0625 C-8.35880859 7.04896484 -8.35880859 7.04896484 -10.19140625 7.03515625 C-11.11824219 7.02355469 -12.04507812 7.01195312 -13 7 C-9.45845523 5.04525126 -7.04452147 4.91207562 -3 5 C-2.34 4.67 -1.68 4.34 -1 4 C-0.34786708 1.97536745 -0.34786708 1.97536745 0 0 Z " fill="#0C1B19" transform="translate(310,352)"/>
<path d="M0 0 C1.65 0 3.3 0 5 0 C5 3.96 5 7.92 5 12 C3 10 3 10 2.8046875 8.0546875 C2.86979167 6.03645833 2.93489583 4.01822917 3 2 C2.01 1.67 1.02 1.34 0 1 C0 0.67 0 0.34 0 0 Z " fill="#398D38" transform="translate(120,313)"/>
<path d="M0 0 C1.32 0.33 2.64 0.66 4 1 C3.5359375 2.2684375 3.5359375 2.2684375 3.0625 3.5625 C1.98461179 7.0497854 1.43418696 10.38177535 1 14 C0.67 14 0.34 14 0 14 C0 9.38 0 4.76 0 0 Z " fill="#3A8E39" transform="translate(344,328)"/>
</svg>
